<svg xmlns="http://www.w3.org/2000/svg" viewBox="0 0 512 512" width="512" height="512">
  <rect width="512" height="512" fill="#2c41e4" rx="80"/>
  <g fill="#4743e8">
    <path d="M256 410c-46 0-84-38-84-84s38-84 84-84 84 38 84 84-38 84-84 84zm0-138c-30 0-54 24-54 54s24 54 54 54 54-24 54-54-24-54-54-54z"/>
    <path d="M356 270c-30 0-54-24-54-54s24-54 54-54 54 24 54 54-24 54-54 54zm0-78c-14 0-24 10-24 24s10 24 24 24 24-10 24-24-10-24-24-24zM156 270c-30 0-54-24-54-54s24-54 54-54 54 24 54 54-24 54-54 54zm0-78c-14 0-24 10-24 24s10 24 24 24 24-10 24-24-10-24-24-24z"/>
  </g>
  <circle cx="256" cy="326" r="40" fill="white"/>
  <circle cx="356" cy="216" r="18" fill="white"/>
  <circle cx="156" cy="216" r="18" fill="white"/>
</svg>
